<svg width="51" height="40" viewBox="0 0 51 40" fill="none" xmlns="http://www.w3.org/2000/svg">
<path d="M44.7086 17.0692C44.303 16.7547 43.8103 16.5525 43.2869 16.4856C42.7634 16.4186 42.2303 16.4897 41.7482 16.6906L32.7782 20.3943L27.5665 11.67C27.3173 11.2627 26.9564 10.9239 26.5205 10.6883C26.0845 10.4526 25.5891 10.3285 25.0846 10.3285C24.5802 10.3285 24.0848 10.4526 23.6488 10.6883C23.2129 10.9239 22.8519 11.2627 22.6028 11.67L17.3911 20.3943L8.4211 16.6906C7.93805 16.49 7.40419 16.4188 6.87988 16.4852C6.35556 16.5516 5.86171 16.7529 5.45414 17.0663C5.04656 17.3796 4.74153 17.7927 4.57352 18.2586C4.40551 18.7245 4.38122 19.2248 4.5034 19.7029L9.0061 37.5301C9.0922 37.8753 9.25286 38.2006 9.47835 38.4864C9.70383 38.7721 9.98946 39.0124 10.3179 39.1927C10.7626 39.4399 11.271 39.5707 11.7893 39.5713C12.0412 39.5708 12.2918 39.5376 12.5338 39.4725C20.7412 37.3655 29.4104 37.3655 37.6178 39.4725C38.3671 39.6555 39.1641 39.5548 39.8337 39.1927C40.1641 39.0147 40.4513 38.7751 40.6771 38.489C40.9029 38.2028 41.0623 37.8764 41.1455 37.5301L45.6659 19.7029C45.7867 19.2247 45.7611 18.7246 45.5919 18.2592C45.4228 17.7938 45.1168 17.3816 44.7086 17.0692Z" fill="#A578FD"/>
<circle cx="25.0837" cy="5.90201" r="5.90201" fill="#A578FD"/>
<circle cx="25.084" cy="26.5591" r="4.42651" fill="#5E33B3"/>
<circle cx="46.4781" cy="15.4928" r="3.68876" fill="#A578FD"/>
<circle cx="3.68851" cy="15.4928" r="3.68876" fill="#A578FD"/>
<circle cx="14.0175" cy="28.7723" r="2.21326" fill="#5E33B3"/>
<circle cx="36.1498" cy="28.7723" r="2.21326" fill="#5E33B3"/>
</svg>
